<svg id="svg" xmlns="http://www.w3.org/2000/svg" xmlns:xlink="http://www.w3.org/1999/xlink" width="400" height="242.2680412371134" viewBox="0, 0, 400,242.2680412371134"><g id="svgg"><path id="path0" d="M220.412 44.063 L 211.993 52.506 211.993 65.493 L 211.993 78.481 220.230 86.718 L 228.468 94.954 228.468 110.432 L 228.468 125.910 229.286 126.734 C 229.736 127.188,230.309 127.734,230.558 127.948 C 230.807 128.163,231.187 128.544,231.401 128.796 C 231.615 129.049,231.997 129.435,232.249 129.656 C 232.501 129.876,233.047 130.421,233.463 130.867 C 233.878 131.313,234.423 131.853,234.674 132.067 C 234.925 132.281,235.305 132.663,235.520 132.915 C 235.734 133.167,236.115 133.554,236.368 133.774 C 236.620 133.995,237.166 134.540,237.582 134.986 C 237.997 135.432,238.542 135.977,238.793 136.197 C 239.044 136.417,239.589 136.962,240.004 137.408 C 240.420 137.854,240.965 138.394,241.216 138.609 C 241.467 138.823,241.847 139.204,242.061 139.457 C 242.275 139.709,242.657 140.095,242.909 140.316 C 243.161 140.536,243.713 141.081,244.134 141.527 C 244.556 141.973,245.171 142.583,245.501 142.883 L 246.101 143.428 272.637 143.428 C 301.054 143.428,299.939 143.468,299.939 142.459 C 299.939 141.451,301.023 141.490,273.154 141.490 L 247.136 141.490 238.771 133.133 L 230.406 124.775 230.406 109.291 L 230.406 93.807 222.168 85.573 L 213.931 77.339 213.931 65.455 L 213.931 53.571 222.185 45.328 C 231.075 36.451,231.544 35.837,229.558 35.678 C 228.899 35.625,228.039 36.414,220.412 44.063 M188.397 36.240 C 188.316 36.451,188.250 41.502,188.250 47.465 L 188.250 58.307 187.671 58.617 C 187.352 58.787,186.952 59.187,186.782 59.506 C 186.611 59.824,186.398 60.085,186.308 60.085 C 186.143 60.085,184.832 61.329,184.105 62.175 C 183.891 62.425,183.509 62.804,183.257 63.018 C 183.005 63.232,182.618 63.614,182.398 63.866 C 182.178 64.118,181.632 64.665,181.186 65.080 C 180.740 65.496,180.200 66.041,179.986 66.291 C 179.772 66.542,179.390 66.923,179.138 67.137 C 178.886 67.351,178.499 67.733,178.279 67.985 C 178.059 68.237,177.514 68.783,177.068 69.199 C 176.622 69.614,176.082 70.159,175.867 70.410 C 175.653 70.661,175.272 71.046,175.019 71.267 C 174.767 71.487,174.221 72.032,173.805 72.478 C 173.390 72.924,172.845 73.464,172.594 73.678 C 172.343 73.892,171.958 74.274,171.738 74.526 C 171.517 74.778,170.972 75.325,170.526 75.740 C 170.080 76.156,169.540 76.701,169.326 76.952 C 169.112 77.202,168.730 77.583,168.478 77.797 C 168.226 78.011,167.839 78.393,167.619 78.645 C 167.399 78.897,166.853 79.444,166.407 79.859 C 165.962 80.274,165.421 80.820,165.207 81.070 C 164.993 81.321,164.611 81.702,164.359 81.916 C 164.107 82.130,163.720 82.511,163.500 82.764 C 163.280 83.016,162.735 83.562,162.289 83.978 C 160.466 85.676,160.630 83.630,160.630 104.684 C 160.630 124.767,160.603 124.288,161.720 124.288 C 162.836 124.288,162.810 124.741,162.810 105.046 L 162.810 86.496 176.499 72.814 L 190.188 59.132 190.188 47.878 C 190.188 35.645,190.205 35.857,189.219 35.857 C 188.827 35.857,188.482 36.018,188.397 36.240 M200.026 36.240 C 199.945 36.451,199.879 48.490,199.879 62.993 L 199.879 89.362 186.295 102.946 C 171.719 117.521,171.552 117.717,173.546 117.946 C 174.158 118.016,175.627 116.624,188.022 104.226 L 201.817 90.428 201.817 63.526 C 201.817 34.721,201.857 35.857,200.848 35.857 C 200.456 35.857,200.111 36.018,200.026 36.240 M176.309 37.218 C 176.214 37.314,176.136 40.656,176.136 44.646 L 176.136 51.900 161.478 66.554 L 146.820 81.208 146.820 102.744 L 146.820 124.279 147.408 124.427 C 147.732 124.508,148.222 124.503,148.499 124.415 L 149.001 124.256 149.001 103.181 L 149.001 82.106 163.541 67.570 L 178.080 53.034 178.017 45.112 L 177.953 37.190 177.217 37.118 C 176.813 37.078,176.404 37.123,176.309 37.218 M241.909 40.023 C 241.841 40.199,241.815 43.940,241.850 48.336 L 241.914 56.329 242.762 56.329 L 243.610 56.329 243.610 48.092 L 243.610 39.855 242.821 39.779 C 242.331 39.731,241.985 39.824,241.909 40.023 M140.691 50.889 L 134.440 57.177 126.205 57.177 L 117.971 57.177 112.876 62.268 C 108.434 66.706,107.791 67.443,107.858 68.022 C 107.969 68.985,109.201 69.086,110.017 68.199 C 110.888 67.252,111.824 66.311,112.330 65.873 C 112.577 65.659,112.955 65.278,113.170 65.026 C 113.384 64.773,113.765 64.387,114.017 64.166 C 114.270 63.946,114.816 63.401,115.232 62.955 C 115.647 62.509,116.192 61.969,116.443 61.755 C 116.694 61.541,117.074 61.159,117.288 60.907 C 118.442 59.548,118.056 59.600,126.959 59.600 C 135.086 59.600,135.201 59.593,135.617 59.081 C 135.849 58.796,136.245 58.387,136.497 58.173 C 136.750 57.958,137.131 57.581,137.345 57.333 C 137.845 56.755,138.887 55.713,139.465 55.213 C 139.713 54.999,140.095 54.618,140.316 54.365 C 140.536 54.113,141.081 53.567,141.527 53.151 C 141.973 52.736,142.513 52.191,142.727 51.940 C 142.942 51.689,143.323 51.309,143.575 51.095 C 143.828 50.880,144.214 50.499,144.434 50.247 C 144.655 49.994,145.200 49.448,145.646 49.033 C 146.092 48.617,146.637 48.072,146.857 47.821 C 147.077 47.570,147.546 47.103,147.899 46.783 C 148.832 45.936,148.701 44.721,147.668 44.650 C 147.017 44.606,146.291 45.255,140.691 50.889 M151.222 55.850 L 139.996 67.111 130.700 67.111 L 121.404 67.111 114.609 73.913 L 107.813 80.715 107.813 96.424 L 107.813 112.133 109.207 113.482 C 110.866 115.090,110.581 114.806,112.636 116.899 C 113.553 117.832,114.505 118.769,114.753 118.982 C 115.000 119.195,115.475 119.708,115.809 120.122 C 116.799 121.354,117.989 121.107,117.989 119.670 C 117.989 119.398,116.307 117.527,113.870 115.089 L 109.752 110.968 109.752 96.413 L 109.752 81.857 116.026 75.574 L 122.299 69.291 131.564 69.291 L 140.828 69.291 152.442 57.673 C 164.943 45.167,165.244 44.802,163.174 44.645 C 162.514 44.595,161.420 45.620,151.222 55.850 M255.776 45.456 C 255.681 45.551,255.603 52.817,255.603 61.603 L 255.603 77.577 248.758 84.435 C 244.994 88.206,241.739 91.493,241.525 91.739 C 241.310 91.985,240.902 92.376,240.616 92.608 L 240.097 93.030 240.097 106.498 L 240.097 119.966 245.896 125.761 L 251.695 131.557 278.720 131.557 L 305.745 131.557 305.892 130.968 C 305.974 130.645,305.968 130.154,305.881 129.878 L 305.721 129.376 279.121 129.376 L 252.521 129.376 247.278 124.137 L 242.035 118.898 242.035 106.570 L 242.035 94.242 249.790 86.480 L 257.544 78.718 257.482 62.073 L 257.420 45.427 256.684 45.355 C 256.280 45.315,255.871 45.361,255.776 45.456 M268.859 51.271 C 268.763 51.366,268.681 58.921,268.675 68.060 L 268.665 84.676 267.912 85.282 C 267.497 85.615,266.984 86.094,266.771 86.346 C 266.558 86.598,266.178 86.980,265.925 87.194 C 265.673 87.408,265.292 87.783,265.077 88.027 C 264.570 88.605,256.988 96.187,256.410 96.695 C 256.166 96.909,255.791 97.290,255.577 97.543 C 255.363 97.795,254.981 98.181,254.729 98.402 C 254.477 98.622,253.930 99.167,253.515 99.613 C 253.099 100.059,252.554 100.599,252.303 100.813 C 251.028 101.903,250.718 102.722,251.346 103.349 C 252.039 104.043,252.626 103.542,261.550 94.629 L 270.627 85.562 270.565 68.402 L 270.503 51.242 269.767 51.170 C 269.363 51.130,268.954 51.175,268.859 51.271 M225.863 52.694 C 225.275 53.362,225.587 53.862,228.286 56.577 C 229.785 58.086,231.187 59.519,231.401 59.763 C 231.615 60.007,231.997 60.381,232.249 60.595 C 232.501 60.809,232.888 61.191,233.108 61.443 C 233.328 61.696,233.873 62.242,234.319 62.657 C 234.765 63.073,235.305 63.618,235.520 63.869 C 235.734 64.119,236.115 64.500,236.368 64.714 C 236.620 64.928,237.008 65.310,237.230 65.562 C 237.452 65.814,238.352 66.713,239.229 67.559 L 240.824 69.098 240.824 73.657 C 240.824 78.809,240.855 78.982,241.793 78.982 C 242.738 78.982,242.762 78.838,242.762 73.137 L 242.762 68.058 234.905 60.195 C 227.186 52.471,226.535 51.931,225.863 52.694 M282.184 57.812 C 282.089 57.907,282.011 65.593,282.011 74.891 L 282.011 91.796 286.502 96.292 C 290.816 100.610,291.341 101.004,292.288 100.640 C 293.295 100.254,292.676 99.379,288.312 95.021 L 283.953 90.668 283.890 74.225 L 283.828 57.783 283.092 57.711 C 282.688 57.671,282.279 57.717,282.184 57.812 M221.361 66.788 C 220.721 67.427,221.341 68.240,226.048 72.935 C 228.952 75.831,231.082 77.771,231.358 77.771 C 232.797 77.771,233.045 76.581,231.812 75.591 C 231.398 75.257,230.885 74.778,230.672 74.526 C 230.459 74.274,230.078 73.892,229.826 73.678 C 229.574 73.464,229.192 73.084,228.978 72.833 C 228.764 72.582,228.224 72.037,227.778 71.622 C 227.332 71.206,226.787 70.664,226.566 70.416 C 226.052 69.837,225.012 68.798,224.436 68.285 C 224.188 68.065,223.729 67.602,223.415 67.256 C 222.874 66.659,221.747 66.402,221.361 66.788 M291.864 68.484 C 291.155 69.192,291.786 69.921,301.635 79.771 L 311.569 89.705 311.569 97.547 L 311.569 105.389 284.979 105.450 L 258.389 105.512 258.389 106.360 L 258.389 107.208 285.887 107.208 L 313.386 107.208 313.449 97.921 L 313.513 88.634 303.354 78.478 C 293.313 68.439,292.562 67.786,291.864 68.484 M96.357 75.014 C 96.262 75.109,96.184 84.660,96.184 96.238 L 96.184 117.289 104.163 125.271 L 112.143 133.253 116.658 133.253 C 121.371 133.253,121.866 133.149,121.866 132.162 C 121.866 131.192,121.343 131.072,117.132 131.072 C 112.647 131.072,113.039 131.196,111.124 129.171 C 110.702 128.725,110.151 128.180,109.899 127.960 C 109.647 127.739,109.265 127.353,109.051 127.100 C 108.837 126.848,108.462 126.467,108.218 126.252 C 107.523 125.643,99.987 118.085,99.540 117.550 C 99.320 117.287,98.938 116.958,98.692 116.820 C 98.262 116.580,98.238 115.689,98.122 95.777 L 98.001 74.985 97.266 74.913 C 96.861 74.873,96.452 74.919,96.357 75.014 M124.228 78.724 L 120.896 82.067 120.896 96.401 L 120.896 110.735 127.674 117.512 C 132.811 122.647,134.594 124.288,135.038 124.288 C 136.018 124.288,136.261 122.868,135.401 122.166 C 135.117 121.934,134.545 121.380,134.129 120.934 C 133.714 120.488,133.167 119.942,132.915 119.722 C 132.663 119.502,132.281 119.116,132.067 118.866 C 131.853 118.615,131.313 118.070,130.867 117.654 C 130.421 117.239,129.876 116.692,129.656 116.440 C 129.435 116.188,129.049 115.806,128.796 115.592 C 128.544 115.378,128.163 115.000,127.948 114.753 C 127.449 114.175,126.406 113.133,125.829 112.633 C 125.581 112.419,125.198 112.037,124.978 111.785 C 124.758 111.533,124.185 110.969,123.706 110.533 L 122.835 109.739 122.835 96.442 L 122.835 83.145 125.984 80.006 C 129.109 76.892,129.455 76.361,128.788 75.694 C 128.116 75.023,127.526 75.415,124.228 78.724 M187.911 79.649 C 187.168 80.415,186.464 81.138,186.346 81.255 C 186.062 81.535,182.558 85.040,182.284 85.317 C 182.167 85.435,181.308 86.281,180.376 87.197 C 179.443 88.114,178.499 89.066,178.279 89.313 C 178.059 89.561,177.514 90.104,177.068 90.519 C 176.622 90.935,176.082 91.480,175.867 91.731 C 175.653 91.981,175.272 92.362,175.019 92.576 C 174.767 92.790,174.381 93.172,174.160 93.424 C 173.940 93.676,173.368 94.240,172.888 94.676 C 172.043 95.446,171.859 95.976,172.164 96.770 C 172.598 97.901,173.374 97.256,182.196 88.428 C 191.003 79.615,191.653 78.833,190.531 78.403 C 189.693 78.081,189.205 78.312,187.911 79.649 M134.152 80.828 C 133.943 81.038,133.918 110.278,134.126 110.822 C 134.365 111.443,135.638 111.320,135.798 110.660 C 135.871 110.360,135.900 103.519,135.863 95.457 L 135.796 80.800 135.061 80.727 C 134.656 80.688,134.248 80.733,134.152 80.828 M291.849 83.969 C 291.470 84.957,291.852 85.455,296.767 90.381 C 301.759 95.384,302.300 95.796,302.985 95.111 C 303.637 94.459,303.327 93.950,300.606 91.212 C 299.107 89.703,297.705 88.270,297.491 88.026 C 297.277 87.783,296.895 87.408,296.643 87.194 C 296.391 86.980,296.001 86.598,295.778 86.346 C 295.555 86.094,294.928 85.467,294.385 84.954 C 293.842 84.441,293.398 83.923,293.398 83.803 C 293.398 83.415,292.004 83.565,291.849 83.969 M85.641 84.358 C 85.574 84.533,85.548 91.926,85.582 100.787 L 85.645 116.899 86.493 116.899 L 87.341 116.899 87.341 100.545 L 87.341 84.191 86.552 84.115 C 86.064 84.068,85.716 84.161,85.641 84.358 M211.811 93.922 C 211.573 94.018,211.508 97.346,211.508 109.421 L 211.508 124.797 203.154 133.143 L 194.800 141.488 167.358 141.550 L 139.915 141.611 139.915 142.459 L 139.915 143.307 167.934 143.369 L 195.953 143.430 200.580 138.765 C 203.124 136.200,205.289 134.017,205.389 133.916 C 205.490 133.814,207.399 131.926,209.631 129.720 L 213.689 125.709 213.689 109.882 C 213.689 95.674,213.649 94.040,213.305 93.908 C 212.865 93.739,212.249 93.745,211.811 93.922 M251.302 111.366 C 250.402 111.729,251.049 112.713,254.385 116.053 L 257.770 119.443 283.839 119.443 C 311.581 119.443,310.600 119.483,310.600 118.353 C 310.600 117.223,311.554 117.262,284.234 117.262 L 258.561 117.262 257.990 116.633 C 257.676 116.287,257.213 115.823,256.961 115.603 C 256.709 115.383,256.327 115.000,256.113 114.753 C 255.614 114.175,254.571 113.133,253.994 112.633 C 253.746 112.419,253.354 112.010,253.122 111.724 C 252.725 111.236,251.986 111.090,251.302 111.366 M198.789 113.066 C 197.989 113.931,197.132 114.821,196.885 115.042 C 196.637 115.264,195.685 116.208,194.769 117.141 C 193.852 118.074,192.992 118.946,192.857 119.079 C 192.722 119.213,192.202 119.739,191.702 120.248 C 191.202 120.758,190.591 121.357,190.343 121.581 C 190.095 121.804,189.143 122.750,188.227 123.683 C 186.211 125.735,186.547 125.399,184.494 127.415 C 183.561 128.332,182.623 129.284,182.409 129.532 C 181.197 130.933,183.235 130.830,156.892 130.830 C 131.072 130.830,132.041 130.792,132.041 131.799 C 132.041 132.806,131.036 132.768,157.498 132.768 L 182.187 132.768 192.002 122.951 C 198.033 116.919,201.817 112.957,201.817 112.674 C 201.817 110.880,200.669 111.029,198.789 113.066 M161.461 152.254 C 161.029 153.972,159.716 153.846,178.101 153.846 L 194.570 153.846 203.297 162.568 C 211.700 170.965,212.340 171.514,213.305 171.143 C 214.409 170.719,213.746 169.931,204.579 160.770 L 195.468 151.666 178.538 151.666 L 161.608 151.666 161.461 152.254 M237.718 160.764 C 228.019 170.487,227.597 171.027,229.513 171.247 C 230.118 171.317,230.887 170.634,236.337 165.190 C 239.716 161.816,242.679 158.880,242.924 158.666 C 243.168 158.452,243.543 158.070,243.757 157.818 C 243.971 157.566,244.353 157.174,244.605 156.948 C 244.857 156.721,245.659 155.931,246.387 155.191 L 247.710 153.846 266.937 153.846 C 287.357 153.846,286.856 153.874,286.856 152.756 C 286.856 151.636,287.395 151.665,266.462 151.683 L 246.760 151.699 237.718 160.764 M149.546 152.311 C 148.572 152.703,153.199 158.045,159.093 163.332 C 159.339 163.552,159.898 164.125,160.335 164.606 L 161.130 165.479 178.021 165.417 L 194.912 165.354 194.912 164.506 L 194.912 163.658 178.613 163.596 L 162.314 163.534 156.613 157.842 C 150.988 152.227,150.568 151.898,149.546 152.311 " stroke="none" fill="#04bcfc" fill-rule="evenodd"></path><path id="path1" d="M41.187 120.533 L 41.187 231.859 199.758 231.859 L 358.328 231.859 358.328 120.533 L 358.328 9.207 199.758 9.207 L 41.187 9.207 41.187 120.533 M356.148 120.412 L 356.148 229.679 199.637 229.679 L 43.125 229.679 43.125 120.412 L 43.125 11.145 199.637 11.145 L 356.148 11.145 356.148 120.412 " stroke="none" fill="#fc7c24" fill-rule="evenodd"></path><path id="path2" d="M219.746 138.825 C 219.746 138.958,219.426 139.067,219.036 139.067 C 218.646 139.067,218.177 139.216,217.995 139.399 C 217.813 139.581,217.413 139.810,217.106 139.907 C 216.799 140.005,216.341 140.291,216.088 140.545 C 215.834 140.798,215.463 141.005,215.263 141.005 C 215.064 141.005,214.900 141.165,214.900 141.359 C 214.900 141.554,214.691 141.908,214.435 142.147 C 214.179 142.385,213.895 142.880,213.803 143.247 C 213.711 143.613,213.540 143.913,213.423 143.913 C 213.306 143.913,213.140 144.349,213.055 144.882 C 212.970 145.415,212.805 145.851,212.689 145.851 C 212.572 145.851,212.477 146.723,212.477 147.789 C 212.477 148.855,212.572 149.727,212.689 149.727 C 212.805 149.727,212.970 150.164,213.055 150.697 C 213.140 151.230,213.306 151.666,213.423 151.666 C 213.540 151.666,213.711 151.965,213.803 152.332 C 213.895 152.698,214.179 153.193,214.435 153.432 C 214.691 153.670,214.900 154.024,214.900 154.219 C 214.900 154.414,215.064 154.573,215.263 154.573 C 215.463 154.573,215.826 154.772,216.069 155.015 C 216.313 155.259,216.694 155.528,216.917 155.614 C 217.140 155.699,217.323 155.875,217.323 156.004 C 217.323 156.133,217.813 156.313,218.413 156.403 C 219.013 156.493,219.503 156.663,219.503 156.781 C 219.503 156.899,220.321 156.996,221.320 156.996 C 222.320 156.996,223.137 156.893,223.137 156.768 C 223.137 156.643,223.628 156.467,224.228 156.377 C 224.827 156.287,225.318 156.114,225.318 155.992 C 225.318 155.869,225.500 155.699,225.723 155.614 C 225.946 155.528,226.328 155.259,226.571 155.015 C 226.815 154.772,227.177 154.573,227.377 154.573 C 227.577 154.573,227.741 154.414,227.741 154.219 C 227.741 154.024,227.950 153.670,228.206 153.432 C 228.461 153.193,228.746 152.698,228.838 152.332 C 228.930 151.965,229.101 151.666,229.218 151.666 C 229.335 151.666,229.501 151.230,229.586 150.697 C 229.671 150.164,229.836 149.727,229.952 149.727 C 230.068 149.727,230.164 148.855,230.164 147.789 C 230.164 146.723,230.068 145.851,229.952 145.851 C 229.836 145.851,229.671 145.415,229.586 144.882 C 229.501 144.349,229.335 143.913,229.218 143.913 C 229.101 143.913,228.930 143.613,228.838 143.247 C 228.746 142.880,228.461 142.385,228.206 142.147 C 227.950 141.908,227.741 141.554,227.741 141.359 C 227.741 141.165,227.577 141.005,227.377 141.005 C 227.177 141.005,226.799 140.790,226.536 140.527 C 226.272 140.264,225.782 139.980,225.445 139.895 C 225.109 139.811,224.833 139.646,224.833 139.528 C 224.833 139.411,224.397 139.246,223.864 139.160 C 223.331 139.075,222.895 138.910,222.895 138.794 C 222.895 138.678,222.187 138.583,221.320 138.583 C 220.432 138.583,219.746 138.688,219.746 138.825 M192.187 170.373 C 191.354 170.501,190.672 170.693,190.672 170.799 C 190.672 170.906,190.182 171.066,189.582 171.156 C 188.982 171.246,188.492 171.405,188.492 171.509 C 188.492 171.613,188.056 171.829,187.523 171.988 C 186.990 172.148,186.554 172.372,186.554 172.485 C 186.554 172.598,186.281 172.760,185.948 172.843 C 185.344 172.995,185.342 173.004,185.342 175.898 C 185.342 178.952,185.585 179.455,186.597 178.498 C 186.773 178.331,187.244 178.032,187.644 177.832 C 188.044 177.632,188.458 177.333,188.564 177.166 C 188.671 176.999,188.916 176.863,189.110 176.863 C 189.303 176.863,189.461 176.768,189.461 176.652 C 189.461 176.536,189.979 176.299,190.612 176.125 C 191.245 175.951,191.827 175.712,191.906 175.595 C 191.986 175.478,192.667 175.318,193.421 175.240 C 194.174 175.162,194.791 175.005,194.791 174.890 C 194.791 174.776,195.554 174.682,196.487 174.682 C 197.420 174.682,198.183 174.779,198.183 174.897 C 198.183 175.016,198.565 175.184,199.031 175.272 C 199.497 175.359,199.879 175.508,199.879 175.603 C 199.879 175.698,200.188 175.912,200.566 176.079 C 200.944 176.247,201.408 176.682,201.596 177.047 C 201.784 177.412,202.028 177.777,202.138 177.857 C 202.248 177.938,202.399 178.456,202.473 179.008 C 202.547 179.560,202.702 180.012,202.818 180.012 C 202.934 180.012,203.028 180.597,203.028 181.313 L 203.028 182.614 202.120 182.764 C 201.620 182.847,200.803 182.915,200.303 182.917 C 199.803 182.918,199.394 183.015,199.394 183.133 C 199.394 183.250,198.250 183.424,196.850 183.520 C 195.451 183.615,194.306 183.769,194.306 183.863 C 194.306 183.956,193.248 184.166,191.955 184.330 C 190.662 184.493,189.544 184.720,189.472 184.833 C 189.399 184.946,188.985 185.116,188.552 185.210 C 188.119 185.304,187.765 185.481,187.765 185.604 C 187.765 185.726,187.618 185.827,187.439 185.827 C 187.259 185.827,186.861 186.045,186.554 186.311 C 186.246 186.578,185.872 186.796,185.723 186.796 C 185.368 186.796,184.131 188.207,184.131 188.612 C 184.131 188.784,183.967 188.987,183.767 189.064 C 183.568 189.141,183.404 189.370,183.404 189.574 C 183.404 189.779,183.314 189.945,183.203 189.945 C 182.268 189.945,182.182 198.771,183.112 199.369 C 183.236 199.450,183.419 199.771,183.516 200.083 C 183.787 200.951,185.836 202.913,186.856 203.282 C 187.356 203.463,187.765 203.694,187.765 203.796 C 187.765 203.898,188.310 204.053,188.976 204.142 C 189.643 204.230,190.188 204.397,190.188 204.513 C 190.188 204.629,191.442 204.724,192.974 204.724 C 194.506 204.724,195.760 204.630,195.760 204.514 C 195.760 204.398,196.274 204.245,196.903 204.174 C 197.532 204.103,198.086 203.925,198.135 203.779 C 198.183 203.633,198.379 203.513,198.570 203.513 C 199.393 203.513,202.544 201.016,202.544 200.363 C 202.544 200.230,202.653 200.121,202.786 200.121 C 202.928 200.121,203.028 200.929,203.028 202.059 L 203.028 203.998 206.070 203.998 L 209.112 203.998 209.038 190.663 C 208.985 181.127,208.887 177.280,208.692 177.156 C 208.542 177.061,208.343 176.629,208.249 176.196 C 208.155 175.763,207.989 175.409,207.881 175.409 C 207.773 175.409,207.617 175.142,207.535 174.815 C 207.364 174.132,205.065 171.775,204.570 171.775 C 204.389 171.775,204.240 171.666,204.240 171.532 C 204.240 171.399,204.084 171.290,203.894 171.290 C 203.703 171.290,203.395 171.138,203.209 170.952 C 202.428 170.170,195.780 169.821,192.187 170.373 M241.316 170.362 C 240.453 170.485,239.690 170.676,239.620 170.787 C 239.549 170.897,239.137 171.064,238.704 171.158 C 238.271 171.252,237.916 171.407,237.916 171.503 C 237.916 171.599,237.535 171.815,237.068 171.984 C 236.602 172.153,236.220 172.396,236.220 172.525 C 236.220 172.654,236.038 172.829,235.815 172.915 C 235.339 173.097,234.525 173.873,234.525 174.144 C 234.525 174.247,234.306 174.519,234.040 174.747 C 233.773 174.975,233.555 175.317,233.555 175.507 C 233.555 175.697,233.449 175.889,233.319 175.934 C 232.812 176.107,232.483 179.666,232.791 181.647 C 232.951 182.680,233.189 183.561,233.319 183.606 C 233.449 183.650,233.555 183.799,233.555 183.937 C 233.555 184.075,233.992 184.624,234.525 185.157 C 235.058 185.690,235.494 186.212,235.494 186.316 C 235.494 186.421,235.821 186.620,236.220 186.760 C 236.620 186.899,236.947 187.119,236.947 187.249 C 236.947 187.378,237.274 187.556,237.674 187.644 C 238.074 187.732,238.401 187.882,238.401 187.978 C 238.401 188.190,239.852 188.734,240.417 188.734 C 240.641 188.734,240.824 188.838,240.824 188.965 C 240.824 189.093,241.205 189.268,241.672 189.356 C 242.138 189.443,242.520 189.607,242.520 189.719 C 242.520 189.832,242.901 189.995,243.368 190.083 C 243.834 190.170,244.216 190.330,244.216 190.438 C 244.216 190.546,244.534 190.704,244.923 190.789 C 245.311 190.874,245.873 191.156,246.171 191.414 C 246.469 191.672,246.841 191.884,246.998 191.884 C 247.155 191.884,247.438 192.184,247.627 192.550 C 247.816 192.916,248.107 193.303,248.273 193.410 C 248.440 193.517,248.577 193.925,248.577 194.319 C 248.577 194.712,248.686 195.033,248.819 195.033 C 248.952 195.033,249.061 195.251,249.061 195.518 C 249.061 195.784,248.952 196.002,248.819 196.002 C 248.686 196.002,248.577 196.258,248.577 196.570 C 248.577 196.883,248.304 197.455,247.971 197.842 C 247.638 198.230,247.366 198.611,247.366 198.690 C 247.365 198.881,245.625 199.394,244.975 199.394 C 244.691 199.394,244.458 199.503,244.458 199.637 C 244.458 199.779,243.610 199.879,242.399 199.879 C 241.187 199.879,240.339 199.779,240.339 199.637 C 240.339 199.503,240.075 199.394,239.752 199.394 C 238.892 199.394,236.705 198.856,236.705 198.645 C 236.705 198.545,236.378 198.392,235.978 198.304 C 235.578 198.216,235.251 198.064,235.251 197.967 C 235.251 197.869,234.870 197.639,234.403 197.456 C 233.937 197.273,233.555 197.035,233.555 196.926 C 233.555 196.818,233.337 196.729,233.071 196.729 C 232.611 196.729,232.586 196.891,232.586 199.863 C 232.586 203.314,232.455 203.039,234.282 203.404 C 234.749 203.498,235.197 203.678,235.278 203.806 C 235.359 203.933,236.095 204.098,236.913 204.172 C 237.732 204.246,238.401 204.401,238.401 204.516 C 238.401 204.631,239.873 204.724,241.672 204.724 C 243.471 204.724,244.942 204.631,244.942 204.516 C 244.942 204.401,245.568 204.243,246.332 204.164 C 247.096 204.085,247.759 203.907,247.806 203.767 C 247.852 203.627,248.064 203.513,248.277 203.513 C 248.851 203.513,250.273 202.961,250.273 202.738 C 250.273 202.631,250.419 202.544,250.599 202.544 C 250.778 202.544,251.152 202.353,251.428 202.120 C 251.705 201.887,252.267 201.425,252.677 201.093 C 253.087 200.761,253.422 200.369,253.422 200.221 C 253.422 200.074,253.640 199.702,253.907 199.394 C 254.173 199.087,254.391 198.698,254.391 198.529 C 254.391 198.361,254.528 198.178,254.694 198.122 C 254.915 198.049,254.997 197.208,254.997 195.033 C 254.997 192.858,254.915 192.018,254.694 191.944 C 254.528 191.889,254.391 191.631,254.391 191.371 C 254.391 191.112,254.228 190.837,254.028 190.760 C 253.828 190.683,253.664 190.471,253.664 190.289 C 253.664 189.907,251.739 187.915,251.152 187.690 C 250.935 187.606,250.757 187.440,250.757 187.320 C 250.757 187.199,250.267 186.964,249.667 186.796 C 249.067 186.628,248.577 186.401,248.577 186.291 C 248.577 186.181,248.195 186.019,247.729 185.932 C 247.262 185.844,246.881 185.681,246.881 185.569 C 246.881 185.456,246.499 185.293,246.033 185.205 C 245.566 185.118,245.185 184.960,245.185 184.855 C 245.185 184.750,244.640 184.533,243.973 184.373 C 243.307 184.213,242.762 183.996,242.762 183.891 C 242.762 183.785,242.476 183.627,242.127 183.539 C 241.778 183.452,241.345 183.249,241.165 183.089 C 240.986 182.929,240.508 182.531,240.105 182.204 C 239.701 181.877,239.370 181.477,239.370 181.316 C 239.370 181.154,239.250 180.982,239.103 180.933 C 238.298 180.664,238.783 177.873,239.798 176.933 C 241.394 175.454,241.537 175.364,242.537 175.230 C 243.060 175.160,243.489 175.008,243.489 174.892 C 243.489 174.777,244.252 174.682,245.185 174.682 C 246.118 174.682,246.881 174.777,246.881 174.893 C 246.881 175.009,247.535 175.178,248.334 175.268 C 249.134 175.359,249.788 175.524,249.788 175.636 C 249.788 175.748,250.156 175.908,250.605 175.993 C 251.054 176.077,251.670 176.362,251.974 176.625 C 253.365 177.831,253.664 177.406,253.664 174.224 L 253.664 171.344 252.834 171.188 C 252.377 171.103,251.969 170.933,251.926 170.812 C 251.708 170.198,244.579 169.896,241.316 170.362 M218.292 187.280 L 218.292 203.998 221.442 203.998 L 224.591 203.998 224.591 187.280 L 224.591 170.563 221.442 170.563 L 218.292 170.563 218.292 187.280 M203.028 190.067 C 203.028 191.732,202.932 193.095,202.813 193.095 C 202.695 193.095,202.526 193.477,202.439 193.943 C 202.351 194.409,202.186 194.791,202.072 194.791 C 201.958 194.791,201.748 195.125,201.606 195.533 C 201.463 195.942,201.001 196.569,200.579 196.927 C 200.156 197.284,199.638 197.768,199.427 198.001 C 199.217 198.234,198.917 198.425,198.761 198.425 C 198.605 198.425,198.416 198.584,198.341 198.779 C 198.261 198.989,197.711 199.198,196.983 199.295 C 196.310 199.384,195.760 199.552,195.760 199.668 C 195.760 199.784,195.106 199.879,194.306 199.879 C 193.507 199.879,192.853 199.790,192.853 199.682 C 192.853 199.574,192.308 199.346,191.641 199.175 C 190.975 199.005,190.430 198.777,190.430 198.671 C 190.430 198.564,190.159 198.219,189.829 197.906 C 189.498 197.592,189.225 197.208,189.223 197.052 C 189.221 196.897,189.082 196.724,188.916 196.669 C 188.447 196.512,188.500 192.089,188.976 191.590 C 189.176 191.381,189.546 190.926,189.798 190.578 C 190.050 190.230,190.404 189.945,190.585 189.945 C 190.766 189.945,190.915 189.845,190.915 189.722 C 190.915 189.600,191.269 189.423,191.702 189.329 C 192.135 189.235,192.546 189.069,192.616 188.960 C 192.769 188.722,195.523 188.254,196.790 188.251 C 197.290 188.250,197.698 188.152,197.698 188.033 C 197.698 187.915,198.789 187.739,200.121 187.644 C 201.454 187.548,202.544 187.373,202.544 187.254 C 202.544 187.135,202.653 187.038,202.786 187.038 C 202.935 187.038,203.028 188.209,203.028 190.067 " stroke="none" fill="#fcfcfb" fill-rule="evenodd"></path><path id="path3" d="" stroke="none" fill="#3cbc100" fill-rule="evenodd"></path><path id="path4" d="" stroke="none" fill="#3cbc100" fill-rule="evenodd"></path></g></svg>